<svg id="puzzle_1_" data-name="puzzle (1)" xmlns="http://www.w3.org/2000/svg" width="512" height="512" viewBox="0 0 512 512">
  <path id="Trazado_2" data-name="Trazado 2" d="M269.952,291.526a39.535,39.535,0,0,0,17.717,4.162h1.649a39.722,39.722,0,0,0,39.722-39.722h0a39.722,39.722,0,0,0-39.722-39.722h-1.649a39.535,39.535,0,0,0-17.717,4.163A9.7,9.7,0,0,1,256,211.665V161a28,28,0,0,0-28-28H175.937a9.7,9.7,0,0,1-8.477-14.461,39.513,39.513,0,0,0,5.262-19.763V97.127A39.721,39.721,0,0,0,133,57.406h0A39.722,39.722,0,0,0,93.278,97.127v1.649a39.513,39.513,0,0,0,5.262,19.763A9.7,9.7,0,0,1,90.063,133H38a28,28,0,0,0-28,28v50.666a9.7,9.7,0,0,0,13.952,8.742,39.535,39.535,0,0,1,17.717-4.163h1.649A39.722,39.722,0,0,1,83.04,255.967h0a39.722,39.722,0,0,1-39.722,39.722H41.669a39.548,39.548,0,0,1-17.717-4.162A9.694,9.694,0,0,0,10,300.267V351a28,28,0,0,0,28,28H228a28,28,0,0,0,28-28V300.267A9.7,9.7,0,0,1,269.952,291.526Z" fill="#e9eaeb"/>
  <path id="Trazado_3" data-name="Trazado 3" d="M474,133a28,28,0,0,1,28,28V351a28,28,0,0,1-28,28H421.937a9.7,9.7,0,0,0-8.477,14.461,39.513,39.513,0,0,1,5.262,19.763v1.649A39.722,39.722,0,0,1,379,454.595h0a39.722,39.722,0,0,1-39.722-39.722v-1.649a39.5,39.5,0,0,1,5.262-19.763A9.7,9.7,0,0,0,336.063,379H284a28,28,0,0,1-28-28V300.267a9.7,9.7,0,0,1,13.952-8.742,39.532,39.532,0,0,0,17.717,4.163h1.649a39.722,39.722,0,0,0,39.722-39.722h0a39.722,39.722,0,0,0-39.722-39.722h-1.649a39.532,39.532,0,0,0-17.717,4.163A9.7,9.7,0,0,1,256,211.665V161a28,28,0,0,1,28-28Z" fill="#ef3829"/>
  <path id="Trazado_4" data-name="Trazado 4" d="M474,123H422.938a10,10,0,0,0,0,20H474a18.021,18.021,0,0,1,18,18V351a18.021,18.021,0,0,1-18,18H421.937a19.7,19.7,0,0,0-17.145,29.448,29.658,29.658,0,0,1,3.93,14.775v1.649a29.722,29.722,0,0,1-59.444,0v-1.649a29.667,29.667,0,0,1,3.93-14.776A19.7,19.7,0,0,0,336.063,369H284a18.021,18.021,0,0,1-18-18V300.726a49.2,49.2,0,0,0,21.669,4.963h1.649a49.722,49.722,0,0,0,0-99.444h-1.649A49.2,49.2,0,0,0,266,211.207V161a18.021,18.021,0,0,1,18-18h53a10,10,0,0,0,0-20H284a37.9,37.9,0,0,0-28,12.341A37.9,37.9,0,0,0,228,123H176.427a49.722,49.722,0,0,0,6.295-24.224V97.127a49.722,49.722,0,0,0-99.444,0v1.649A49.722,49.722,0,0,0,89.573,123H38A38.043,38.043,0,0,0,0,161v50.666a19.695,19.695,0,0,0,28.421,17.688,29.377,29.377,0,0,1,13.248-3.108h1.649a29.722,29.722,0,0,1,0,59.444H41.669a29.381,29.381,0,0,1-13.248-3.109A19.695,19.695,0,0,0,0,300.268V351a38.043,38.043,0,0,0,38,38H228a37.9,37.9,0,0,0,28-12.341A37.907,37.907,0,0,0,284,389h51.574a49.709,49.709,0,0,0-6.3,24.224v1.649a49.722,49.722,0,0,0,99.444,0v-1.649a49.706,49.706,0,0,0-6.3-24.224H474a38.043,38.043,0,0,0,38-38V161A38.043,38.043,0,0,0,474,123ZM228,369H38a18.01,18.01,0,0,1-17.975-17.5c-.1.009-.2-20.09-.025-20V300.726a49.2,49.2,0,0,0,21.669,4.963h1.649a49.722,49.722,0,0,0,0-99.444H41.669A49.2,49.2,0,0,0,20,211.207V161a18.021,18.021,0,0,1,18-18H90.063a19.7,19.7,0,0,0,17.145-29.447,29.668,29.668,0,0,1-3.93-14.777V97.127a29.722,29.722,0,0,1,59.444,0v1.649a29.674,29.674,0,0,1-3.93,14.777A19.7,19.7,0,0,0,175.937,143H228a18.021,18.021,0,0,1,18,18v50.666a19.695,19.695,0,0,0,28.421,17.688,29.377,29.377,0,0,1,13.248-3.108h1.649a29.722,29.722,0,1,1,0,59.444h-1.649a29.381,29.381,0,0,1-13.248-3.109A19.695,19.695,0,0,0,246,300.27V351A18.021,18.021,0,0,1,228,369Z"/>
  <path id="Trazado_5" data-name="Trazado 5" d="M378.99,123a10.005,10.005,0,1,0,7.069,2.93A10.072,10.072,0,0,0,378.99,123Z"/>
  <path id="Trazado_6" data-name="Trazado 6" d="M123.779,232.97a10,10,0,1,0-2.93,7.07A10.071,10.071,0,0,0,123.779,232.97Z"/>
  <path id="Trazado_7" data-name="Trazado 7" d="M193.569,222.97a10,10,0,1,0,7.07,2.93A10.091,10.091,0,0,0,193.569,222.97Z"/>
  <path id="Trazado_8" data-name="Trazado 8" d="M161.441,266.067a10.993,10.993,0,0,1-15.531,0,10,10,0,1,0-14.143,14.143,30.984,30.984,0,0,0,43.816,0,10,10,0,1,0-14.142-14.143Z"/>
  <path id="Trazado_9" data-name="Trazado 9" d="M368.2,242.97a10,10,0,1,0-7.07-2.93A10.072,10.072,0,0,0,368.2,242.97Z"/>
  <path id="Trazado_10" data-name="Trazado 10" d="M455.069,240.04A9.994,9.994,0,1,0,448,242.97,10.077,10.077,0,0,0,455.069,240.04Z"/>
  <path id="Trazado_11" data-name="Trazado 11" d="M386.193,259.922a10,10,0,0,1,14.143,0,10.993,10.993,0,0,0,15.531,0,10,10,0,0,1,14.142,14.143,30.984,30.984,0,0,1-43.816,0A10,10,0,0,1,386.193,259.922Z" transform="translate(0)"/>
  <path id="Trazado_12" data-name="Trazado 12" d="M378.989,69.73a10,10,0,0,0,10-10V10a10,10,0,0,0-20,0V59.73A10,10,0,0,0,378.989,69.73Z"/>
  <path id="Trazado_13" data-name="Trazado 13" d="M318.647,86a10,10,0,1,0,14.136-14.148l-20-19.982a10,10,0,1,0-14.137,14.147Z"/>
  <path id="Trazado_14" data-name="Trazado 14" d="M431.021,90.241a9.97,9.97,0,0,0,7.074-2.932L459.357,66.03a10,10,0,0,0-14.149-14.137L423.946,73.172a10,10,0,0,0,7.075,17.069Z"/>
  <path id="Trazado_15" data-name="Trazado 15" d="M133.011,442.271a10,10,0,0,0-10,10V502a10,10,0,0,0,20,0V452.271A10,10,0,0,0,133.011,442.271Z"/>
  <path id="Trazado_16" data-name="Trazado 16" d="M193.353,426a10,10,0,0,0-14.137,14.149l20,19.982a10,10,0,0,0,14.136-14.149Z"/>
  <path id="Trazado_17" data-name="Trazado 17" d="M73.9,424.69,52.644,445.97a10,10,0,1,0,14.148,14.137l21.262-21.279A10,10,0,0,0,73.9,424.69Z"/>
</svg>
